# AST/ASF file generated using VICON BodyLanguage
# -----------------------------------------------
:version 1.10
:name VICON
:units
  mass 1.0
  length 0.45
  angle deg
:documentation
   .ast/.asf automatically generated from VICON data using
   VICON BodyBuilder and BodyLanguage model FoxedUp or BRILLIANT.MOD
:root
   order TX TY TZ RX RY RZ
   axis XYZ
   position 0 0 0  
   orientation 0 0 0 
:bonedata
  begin
     id 1 
     name lhipjoint
     direction 0.646657 -0.683706 0.338203 
     length 2.4948 
     axis 0 0 0  XYZ
  end
  begin
     id 2 
     name lfemur
     direction 0.34202 -0.939693 0  
     length 6.79491  
     axis 0 0 20  XYZ
    dof rx ry rz
    limits (-160.0 20.0)
           (-70.0 70.0)
           (-60.0 70.0)
  end
  begin
     id 3 
     name ltibia
     direction 0.34202 -0.939693 0   
     length 7.56807   
     axis 0 0 20   XYZ
    dof rx
    limits (-10.0 170.0)
  end
  begin
     id 4 
     name lfoot
     direction 0.0679796 -0.186772 0.980048   
     length 2.53018   
     axis -90 7.62852e-016 20   XYZ
    dof rx rz
    limits (-45.0 90.0)
           (-70.0 20.0)
  end
  begin
     id 5 
     name ltoes
     direction 1.53625e-011 -4.21881e-011 1   
     length 1.26912   
     axis -90 7.62852e-016 20   XYZ
    dof rx
    limits (-90.0 20.0)
  end
  begin
     id 6 
     name rhipjoint
     direction -0.618868 -0.704065 0.348274   
     length 2.42265  
     axis 0 0 0  XYZ 
  end
  begin
     id 7 
     name rfemur
     direction -0.34202 -0.939693 0   
     length 6.73814   
     axis 0 0 -20   XYZ
    dof rx ry rz
    limits (-160.0 20.0)
           (-70.0 70.0)
           (-70.0 60.0)
  end
  begin
     id 8 
     name rtibia
     direction -0.34202 -0.939693 0   
     length 7.66799   
     axis 0 0 -20   XYZ
    dof rx
    limits (-10.0 170.0)
 end
 begin
     id 9 
     name rfoot
     direction -0.0727352 -0.199838 0.977125   
     length 2.57224  
     axis -90 -7.62852e-016 -20   XYZ
    dof rx rz
    limits (-45.0 90.0)
           (-20.0 70.0)
  end
  begin
     id 10 
     name rtoes
     direction -1.53501e-011 -4.21858e-011 1   
     length 1.28858   
     axis -90 -7.62852e-016 -20   XYZ
    dof rx
    limits (-90.0 20.0)
  end
  begin
     id 11 
     name lowerback
     direction -0.0172471 0.995767 -0.0902851   
     length 2.20206   
     axis 0 0 0   XYZ
    dof rx ry rz
    limits (-20.0 45.0)
           (-30.0 30.0)
           (-30.0 30.0)
  end
  begin
     id 12 
     name upperback
     direction -0.000110737 0.999714 0.0239043   
     length 2.19523   
     axis 0 0 0   XYZ
    dof rx ry rz
    limits (-20.0 45.0)
           (-30.0 30.0)
           (-30.0 30.0)
  end
  begin
     id 13 
     name thorax
     direction 0.00704869 0.997783 0.0661741   
     length 2.21977   
     axis 0 0 0   XYZ
    dof rx ry rz
    limits (-20.0 45.0)
           (-30.0 30.0)
           (-30.0 30.0)
  end
  begin
     id 14 
     name lowerneck
     direction -0.00407501 0.995527 0.0943846   
     length 1.83142   
     axis 0 0 0   XYZ
    dof rx ry rz
    limits (-20.0 45.0)
           (-30.0 30.0)
           (-30.0 30.0)
  end
  begin
     id 15 
     name upperneck
     direction 0.0640586 0.986486 -0.150807   
     length 1.84616   
     axis 0 0 0   XYZ
    dof rx ry rz
    limits (-20.0 45.0)
           (-30.0 30.0)
           (-30.0 30.0)
  end
  begin
     id 16
     name head
     direction 0.0188017 0.99791 -0.0618239  
     length 1.85932  
     axis 0 0 0   XYZ
    dof rx ry rz
    limits (-20.0 45.0)
           (-30.0 30.0)
           (-30.0 30.0)
  end
  begin
     id 17 
     name lclavicle
     direction 0.976074 0.206905 0.066852  
     length 3.81043  
     axis 0 0 0   XYZ
    dof ry rz
    limits (-20.0 10.0)
           (0.0 20.0)
  end
  begin
     id 18 
     name lhumerus
     direction 1 -4.48971e-011 1.86916e-027   
     length 5.37587   
     axis 180 -30 -90   XYZ
    dof rx ry rz
    limits (-60.0 90.0)
           (-90.0 90.0)
           (-90.0 90.0)
  end
  begin
     id 19
     name lradius
     direction 1 -4.48968e-011 1.69187e-027   
     length 3.35977   
     axis 180 -30 -90   XYZ
    dof rx
    limits (-10.0 170.0)
  end
  begin
     id 20
     name lwrist
     direction 1 -4.48968e-011 5.8978e-027   
     length 1.67988   
     axis -3.27506e-015 90 90   XYZ
    dof ry
    limits (-180.0 0.0)
 end
  begin
     id 21 
     name lhand
     direction 1 -4.49028e-011 1.18071e-026   
     length 0.561859   
     axis -7.52654e-015 90 90   XYZ
    dof rx rz
    limits (-90.0 90.0)
           (-45.0 45.0)
  end
  begin
     id 22 
     name lfingers
     direction 1 -4.48927e-011 2.35758e-026   
     length 0.452985   
     axis -1.50534e-014 90 90   XYZ
    dof rx
    limits (0.0 90.0)
  end
  begin
     id 23
     name lthumb
     direction 0.707107 -6.34898e-011 0.707107   
     length 0.650399   
     axis -90 45 5.69224e-014   XYZ
    dof rx rz
    limits (-45.0 45.0)
           (-45.0 45.0)
  end
  begin
     id 24 
     name rclavicle
     direction -0.988403 0.151789 0.00439714   
     length 3.6942  
     axis 0 0 0   XYZ 
    dof ry rz
    limits (-10.0 20.0)
           (-20.0 0.0)
  end
  begin
     id 25 
     name rhumerus
     direction -1 -4.48978e-011 1.62495e-027  
     length 5.22819   
     axis 180 30 90   XYZ
    dof rx ry rz
    limits (-90.0 60.0)
           (-90.0 90.0)
           (-90.0 90.0)
  end
  begin
     id 26 
     name rradius
     direction -1 -4.48961e-011 3.47796e-027   
     length 3.40764   
     axis 180 30 90   XYZ
    dof rx
    limits (-10.0 170.0)
  end
  begin
     id 27 
     name rwrist
     direction -1 -4.48949e-011 5.89602e-027   
     length 1.70382   
     axis -3.27506e-015 -90 -90   XYZ
    dof ry
    limits (-180.0 0.0)
  end
  begin
     id 28
     name rhand
     direction -1 -4.48977e-011 1.17973e-026   
     length 0.583255   
     axis -7.52654e-015 -90 -90   XYZ
    dof rx rz
    limits (-90.0 90.0)
           (-45.0 45.0)
  end
  begin
     id 29
     name rfingers
     direction -1 -4.49099e-011 2.36408e-026   
     length 0.470235   
     axis -1.50534e-014 -90 -90   XYZ
    dof rx
    limits (0.0 90.0)
  end
  begin
     id 30
     name rthumb
     direction -0.707107 -6.35011e-011 0.707107   
     length 0.675167   
     axis -90 -45 -5.69224e-014   XYZ
    dof rx rz
    limits (-45.0 45.0)
           (-45.0 45.0)
  end
:hierarchy
  begin
    root lhipjoint rhipjoint lowerback
    lhipjoint lfemur
    lfemur ltibia
    ltibia lfoot
    lfoot ltoes
    rhipjoint rfemur
    rfemur rtibia
    rtibia rfoot
    rfoot rtoes
    lowerback upperback
    upperback thorax
    thorax lowerneck lclavicle rclavicle
    lowerneck upperneck
    upperneck head
    lclavicle lhumerus
    lhumerus lradius
    lradius lwrist
    lwrist lhand lthumb
    lhand lfingers
    rclavicle rhumerus
    rhumerus rradius
    rradius rwrist
    rwrist rhand rthumb
    rhand rfingers
  end

#!OML:ASF G:\JayActor3\Patient Classification 1\Patient 1\Session 2\male.ASF
:FULLY-SPECIFIED
:DEGREES
152
root 49.6713 16.5964 -7.7394 184.94 -89.1352 -184.942
lowerback -2.40452 -2.51728 -2.52009
upperback 4.33268 -3.3188 0.497495
thorax 6.01939 -1.79429 1.66748
lowerneck -4.2057 -9.65112 -9.87862
upperneck -1.21662 -12.6945 12.7732
head 1.79526 -6.24476 4.91469
rclavicle 4.80873e-014 -5.29264e-015
rhumerus -40.9004 16.1311 -82.089
rradius 47.0493
rwrist -15.8236
rhand -20.5406 7.4092
rfingers 7.12502
rthumb 5.81789 -22.4909
lclavicle 4.80873e-014 -5.29264e-015
lhumerus -33.0173 -4.83038 83.2859
lradius 35.1262
lwrist 15.8311
lhand -18.4927 19.8984
lfingers 7.12502
lthumb 7.79482 49.7347
rfemur -13.7639 3.7507 20.9633
rtibia 37.7923
rfoot -25.0791 -8.66487
rtoes 18.2789
lfemur -6.34248 2.36609 -18.2607
ltibia 25.2854
lfoot -15.2349 7.61295
ltoes -8.88681
153
root 49.6719 16.5988 -7.72634 181.714 -89.1297 -181.696
lowerback -2.41459 -2.50334 -2.53729
upperback 4.30828 -3.2988 0.506952
thorax 5.99999 -1.78464 1.68877
lowerneck -4.25205 -9.67618 -9.88704
upperneck -1.18742 -12.7255 12.749
head 1.81352 -6.25824 4.90346
rclavicle -1.53499e-014 4.24902e-015
rhumerus -40.2056 14.8253 -81.671
rradius 44.9871
rwrist -15.34
rhand -20.7981 7.27544
rfingers 7.12502
rthumb 5.56931 -22.6314
lclavicle -1.53499e-014 4.24902e-015
lhumerus -33.1143 -4.39582 83.2676
lradius 34.7182
lwrist 15.7224
lhand -18.5371 19.7806
lfingers 7.12502
lthumb 7.752 49.6185
rfemur -13.757 3.73872 20.966
rtibia 37.7252
rfoot -25.0497 -8.69552
rtoes 18.209
lfemur -6.32007 2.34527 -18.2582
ltibia 25.2132
lfoot -15.2677 7.63202
ltoes -8.74149
154
root 49.6723 16.6009 -7.71387 178.566 -89.1281 -178.533
lowerback -2.4227 -2.49442 -2.56039
upperback 4.2897 -3.28553 0.518734
thorax 5.98648 -1.77884 1.71512
lowerneck -4.30488 -9.69738 -9.8982
upperneck -1.15288 -12.7513 12.7301
head 1.83437 -6.2688 4.89408
rclavicle -3.62161e-015 -1.2424e-015
rhumerus -39.5213 13.4819 -81.2366
rradius 42.964
rwrist -14.8558
rhand -21.0372 7.16788
rfingers 7.12502
rthumb 5.33846 -22.7449
lclavicle -3.62161e-015 -1.2424e-015
lhumerus -33.2172 -3.94579 83.2413
lradius 34.3426
lwrist 15.6107
lhand -18.5439 19.7066
lfingers 7.12502
lthumb 7.74541 49.5447
rfemur -13.7443 3.73582 20.9728
rtibia 37.6598
rfoot -25.0281 -8.73831
rtoes 18.144
lfemur -6.29936 2.33484 -18.2517
ltibia 25.1486
lfoot -15.2924 7.63787
ltoes -8.61869
155
root 49.6724 16.6029 -7.70192 175.26 -89.1319 -175.215
lowerback -2.43064 -2.48889 -2.58221
upperback 4.27658 -3.27705 0.53126
thorax 5.97887 -1.77555 1.74099
lowerneck -4.35224 -9.71552 -9.91638
upperneck -1.12954 -12.7727 12.7243
head 1.85199 -6.27751 4.89053
rclavicle 1.70458e-014 -9.24349e-015
rhumerus -38.8541 12.0912 -80.7845
rradius 40.9869
rwrist -14.3495
rhand -21.2576 7.07788
rfingers 7.12502
rthumb 5.12558 -22.8401
lclavicle 1.70458e-014 -9.24349e-015
lhumerus -33.3222 -3.49742 83.2079
lradius 33.995
lwrist 15.4924
lhand -18.5118 19.6927
lfingers 7.12502
lthumb 7.77637 49.5297
rfemur -13.7271 3.73926 20.9854
rtibia 37.5959
rfoot -25.0153 -8.79221
rtoes 18.0779
lfemur -6.28103 2.33225 -18.2388
ltibia 25.0907
lfoot -15.3128 7.63084
ltoes -8.53217
156
root 49.6722 16.6046 -7.69039 171.63 -89.1373 -171.576
lowerback -2.4423 -2.48418 -2.59849
upperback 4.27009 -3.27004 0.544475
thorax 5.98018 -1.77298 1.764
lowerneck -4.3931 -9.73406 -9.94093
upperneck -1.12068 -12.7943 12.7314
head 1.86567 -6.2867 4.89246
rclavicle -5.0454e-014 4.67144e-015
rhumerus -38.2131 10.6543 -80.3139
rradius 39.0721
rwrist -13.8082
rhand -21.457 7.00033
rfingers 7.12502
rthumb 4.93313 -22.9222
lclavicle -5.0454e-014 4.67144e-015
lhumerus -33.4286 -3.05388 83.1697
lradius 33.6709
lwrist 15.3586
lhand -18.4483 19.7203
lfingers 7.12502
lthumb 7.83764 49.555
rfemur -13.7052 3.74617 21.0047
rtibia 37.5327
rfoot -25.0078 -8.85179
rtoes 18.0125
lfemur -6.26467 2.33893 -18.2181
ltibia 25.0402
lfoot -15.3323 7.61083
ltoes -8.44774
157
root 49.6718 16.6062 -7.67904 167.637 -89.1463 -167.573
lowerback -2.45968 -2.48249 -2.60888
upperback 4.26572 -3.26743 0.560662
thorax 5.98707 -1.77248 1.78614
lowerneck -4.40848 -9.74909 -9.97318
upperneck -1.1482 -12.8102 12.748
head 1.8651 -6.2945 4.90097
rclavicle -2.64943e-014 1.37161e-014
rhumerus -37.6185 9.18451 -79.8231
rradius 37.2427
rwrist -13.2164
rhand -21.6414 6.86467
rfingers 7.12502
rthumb 4.75504 -23.062
lclavicle -2.64943e-014 1.37161e-014
lhumerus -33.5412 -2.61527 83.1317
lradius 33.3629
lwrist 15.2139
lhand -18.3726 19.7663
lfingers 7.12502
lthumb 7.9107 49.5983
rfemur -13.6819 3.74713 21.0277
rtibia 37.4695
rfoot -25.0041 -8.91191
rtoes 17.9449
lfemur -6.25398 2.35055 -18.1914
ltibia 24.9978
lfoot -15.3546 7.5753
ltoes -8.34837
